<svg width="24" height="24" viewBox="0 0 24 24" fill="none" xmlns="http://www.w3.org/2000/svg">
<path d="M24 20.5556V8.33333C24 7.68503 23.7471 7.06327 23.2971 6.60485C22.847 6.14643 22.2365 5.88889 21.6 5.88889H13.4832C13.0374 5.88887 12.6004 5.7624 12.2212 5.52364C11.8421 5.28488 11.5357 4.94327 11.3364 4.53711L10.2636 2.35178C10.0642 1.94543 9.75766 1.6037 9.37824 1.36493C8.99883 1.12616 8.5616 0.999789 8.1156 1H2.4C1.76348 1 1.15303 1.25754 0.702944 1.71596C0.252856 2.17438 0 2.79614 0 3.44444V20.5556C0 21.2039 0.252856 21.8256 0.702944 22.284C1.15303 22.7425 1.76348 23 2.4 23H21.6C22.2365 23 22.847 22.7425 23.2971 22.284C23.7471 21.8256 24 21.2039 24 20.5556Z" fill="#000"/>
</svg>
