<svg width="24" height="24" viewBox="0 0 24 24" fill="none" xmlns="http://www.w3.org/2000/svg">
<path d="M16 7C16 9.20914 14.2091 11 12 11C9.79086 11 8 9.20914 8 7C8 4.79086 9.79086 3 12 3C14.2091 3 16 4.79086 16 7Z" stroke="#000" stroke-width="2"/>
<path d="M6.48589 14H6.48631H11.9999H17.5144C17.5145 14 17.5146 14 17.5147 14C17.9975 14.0002 18.4791 14.1922 18.8659 14.5651C19.255 14.9403 19.5193 15.473 19.5877 16.0702L19.5877 16.0704L19.9906 19.5847C19.9906 19.5848 19.9906 19.5848 19.9906 19.5849C20.0121 19.7728 19.9965 19.963 19.946 20.1417C19.8955 20.3204 19.8122 20.4796 19.7064 20.6104L20.484 21.2393L19.7064 20.6104C19.6008 20.741 19.4762 20.8392 19.3446 20.904C19.2134 20.9686 19.0754 21 18.939 21H18.9387H5.06126H5.06102C4.92455 21 4.7866 20.9686 4.65538 20.904C4.52376 20.8392 4.39919 20.741 4.29357 20.6104L3.58966 21.1797L4.29357 20.6104C4.18777 20.4796 4.10454 20.3204 4.054 20.1417C4.00344 19.963 3.98791 19.7727 4.00942 19.5847L4.00943 19.5846L4.41128 16.0702C4.41128 16.0702 4.41128 16.0701 4.41129 16.0701C4.4797 15.4726 4.7442 14.9397 5.13359 14.5646C5.52074 14.1916 6.00274 13.9998 6.48589 14Z" stroke="#000" stroke-width="2" stroke-linecap="round" stroke-linejoin="round"/>
</svg>
