<svg width="24" height="24" viewBox="0 0 24 24" fill="none" xmlns="http://www.w3.org/2000/svg">
<path d="M21.1935 6.62518L21.1936 6.62518L21.1932 6.61912C21.1325 5.58605 20.6793 4.61522 19.9264 3.90528C19.1735 3.19533 18.1777 2.79994 17.1428 2.8H6.85714V2.79992L6.85146 2.80008L6.62518 2.80651L6.62517 2.80642L6.61912 2.80677C5.58605 2.86748 4.61522 3.32067 3.90528 4.0736C3.19534 4.82653 2.79995 5.82229 2.8 6.85714C2.8 6.85715 2.8 6.85715 2.8 6.85715V17.1429H2.79992L2.80008 17.1485L2.80651 17.3748L2.80642 17.3748L2.80677 17.3809C2.86748 18.4139 3.32067 19.3848 4.0736 20.0947C4.82653 20.8047 5.8223 21.2001 6.85714 21.2H12.4873V21.2002L12.4964 21.1998L12.7227 21.1895L12.7227 21.1897L12.7312 21.1889C13.3793 21.1316 13.9866 20.8481 14.4467 20.388L20.388 14.4467L20.3881 14.4468L20.3941 14.4403L20.5471 14.2732L20.5472 14.2733L20.5529 14.2666C20.9708 13.7679 21.1998 13.138 21.2 12.4873V12.4873V6.85714H21.2001L21.1999 6.85147L21.1935 6.62518ZM19.5143 11.8H15.8571V11.7999L15.8515 11.8001L15.6252 11.8065L15.6252 11.8064L15.6191 11.8068C14.5861 11.8675 13.6152 12.3207 12.9053 13.0736C12.1953 13.8265 11.7999 14.8223 11.8 15.8571V19.5143H6.86043L6.67521 19.5081C6.08015 19.4623 5.52417 19.1938 5.11829 18.7561C4.71148 18.3174 4.48552 17.7412 4.48571 17.1429V17.1429V6.86047L4.49189 6.67521C4.53768 6.08015 4.80617 5.52417 5.24386 5.11829C5.68255 4.71148 6.2588 4.48552 6.85708 4.48571H6.85714H17.1395L17.3248 4.49189C17.9199 4.53768 18.4758 4.80617 18.8817 5.24386C19.2885 5.68255 19.5145 6.2588 19.5143 6.85708V6.85714V11.8ZM15.8571 13.4857L18.9642 13.4868L13.4857 18.9653V15.8605L13.4919 15.6752C13.5377 15.0802 13.8062 14.5242 14.2439 14.1183C14.6826 13.7115 15.2588 13.4855 15.8571 13.4857Z" fill="#000" stroke="#000" stroke-width="0.4"/>
</svg>
