<svg width="24" height="24" viewBox="0 0 24 24" fill="none" xmlns="http://www.w3.org/2000/svg">
<path d="M16.1614 16.7038L13.0278 23.3483C12.6188 24.2172 11.3829 24.2172 10.9722 23.3483L7.83864 16.7038C7.72629 16.4651 7.53494 16.2737 7.2962 16.1614L0.651721 13.0278C-0.21724 12.6188 -0.21724 11.3829 0.651721 10.9722L7.2962 7.83864C7.53494 7.72629 7.72629 7.53494 7.83864 7.2962L10.9722 0.651721C11.3812 -0.21724 12.6171 -0.21724 13.0278 0.651721L16.1614 7.2962C16.2737 7.53494 16.4651 7.72629 16.7038 7.83864L23.3483 10.9722C24.2172 11.3812 24.2172 12.6171 23.3483 13.0278L16.7038 16.1614C16.4651 16.2737 16.2737 16.4651 16.1614 16.7038Z" fill="#000"/>
</svg>
