<svg width="140" height="140" viewBox="0 0 140 140" fill="none" xmlns="http://www.w3.org/2000/svg">
<g filter="url(#filter0_b_263_3206)">
<path fill-rule="evenodd" clip-rule="evenodd" d="M60.55 15.4C59.889 14.5187 58.8516 14 57.75 14H24.5C22.567 14 21 15.567 21 17.5V28V101.5C21 103.433 22.567 105 24.5 105H129.5C131.433 105 133 103.433 133 101.5V31.5C133 29.567 131.433 28 129.5 28H71.75C70.6483 28 69.611 27.4813 68.95 26.6L60.55 15.4Z" fill="#6C7D99"/>
</g>
<g filter="url(#filter1_b_263_3206)">
<mask id="path-2-inside-1_263_3206" fill="white">
<path fill-rule="evenodd" clip-rule="evenodd" d="M39.8259 43.1448C38.9594 42.4646 37.8231 42.2321 36.759 42.5172L4.64197 51.1229C2.77484 51.6232 1.6668 53.5424 2.1671 55.4095L4.88299 65.5454C4.88393 65.5489 4.88755 65.551 4.89106 65.5501V65.5501C4.89458 65.5491 4.89819 65.5512 4.89914 65.5547L23.6623 135.58C24.1626 137.447 26.0818 138.555 27.9489 138.055L129.371 110.879C131.238 110.378 132.346 108.459 131.846 106.592L113.729 38.9774C113.228 37.1102 111.309 36.0022 109.442 36.5025L52.9241 51.6464C51.86 51.9316 50.7238 51.699 49.8572 51.0188L39.8259 43.1448Z"/>
</mask>
<path fill-rule="evenodd" clip-rule="evenodd" d="M39.8259 43.1448C38.9594 42.4646 37.8231 42.2321 36.759 42.5172L4.64197 51.1229C2.77484 51.6232 1.6668 53.5424 2.1671 55.4095L4.88299 65.5454C4.88393 65.5489 4.88755 65.551 4.89106 65.5501V65.5501C4.89458 65.5491 4.89819 65.5512 4.89914 65.5547L23.6623 135.58C24.1626 137.447 26.0818 138.555 27.9489 138.055L129.371 110.879C131.238 110.378 132.346 108.459 131.846 106.592L113.729 38.9774C113.228 37.1102 111.309 36.0022 109.442 36.5025L52.9241 51.6464C51.86 51.9316 50.7238 51.699 49.8572 51.0188L39.8259 43.1448Z" fill="#CFD8E7" fill-opacity="0.4"/>
<path d="M49.8572 51.0188L49.2089 51.8448L49.8572 51.0188ZM129.371 110.879L129.643 111.893L129.371 110.879ZM39.8259 43.1448L40.4743 42.3189L39.8259 43.1448ZM4.91373 52.1372L37.0308 43.5314L36.4872 41.503L4.37021 50.1087L4.91373 52.1372ZM5.89721 65.2736L3.18132 55.1378L1.15287 55.6813L3.86877 65.8172L5.89721 65.2736ZM24.6766 135.308L5.91336 65.283L3.88491 65.8265L22.6481 135.852L24.6766 135.308ZM129.099 109.865L27.6772 137.041L28.2207 139.069L129.643 111.893L129.099 109.865ZM112.714 39.2491L130.832 106.864L132.86 106.32L114.743 38.7056L112.714 39.2491ZM53.1959 52.6607L109.714 37.5167L109.17 35.4883L52.6524 50.6322L53.1959 52.6607ZM39.1776 43.9708L49.2089 51.8448L50.5055 50.1929L40.4743 42.3189L39.1776 43.9708ZM52.6524 50.6322C51.9075 50.8318 51.1121 50.669 50.5055 50.1929L49.2089 51.8448C50.3354 52.7291 51.8126 53.0313 53.1959 52.6607L52.6524 50.6322ZM114.743 38.7056C114.093 36.2783 111.598 34.8379 109.17 35.4883L109.714 37.5167C111.021 37.1665 112.364 37.9421 112.714 39.2491L114.743 38.7056ZM129.643 111.893C132.07 111.243 133.511 108.748 132.86 106.32L130.832 106.864C131.182 108.171 130.406 109.514 129.099 109.865L129.643 111.893ZM22.6481 135.852C23.2985 138.279 25.7934 139.719 28.2207 139.069L27.6772 137.041C26.3702 137.391 25.0268 136.615 24.6766 135.308L22.6481 135.852ZM5.16282 66.5643C4.60624 66.7134 4.03407 66.3831 3.88491 65.8265L5.91336 65.283C5.76232 64.7193 5.18292 64.3848 4.6193 64.5358L5.16282 66.5643ZM3.86877 65.8172C4.0198 66.3808 4.59917 66.7153 5.16282 66.5643L4.6193 64.5358C5.17593 64.3867 5.74807 64.717 5.89721 65.2736L3.86877 65.8172ZM37.0308 43.5314C37.7756 43.3318 38.571 43.4946 39.1776 43.9708L40.4743 42.3189C39.3477 41.4346 37.8706 41.1323 36.4872 41.503L37.0308 43.5314ZM4.37021 50.1087C1.94294 50.7591 0.50249 53.254 1.15287 55.6813L3.18132 55.1378C2.83111 53.8308 3.60674 52.4874 4.91373 52.1372L4.37021 50.1087Z" fill="url(#paint0_linear_263_3206)" fill-opacity="0.2" mask="url(#path-2-inside-1_263_3206)"/>
</g>
<defs>
<filter id="filter0_b_263_3206" x="7" y="0" width="140" height="119" filterUnits="userSpaceOnUse" color-interpolation-filters="sRGB">
<feFlood flood-opacity="0" result="BackgroundImageFix"/>
<feGaussianBlur in="BackgroundImage" stdDeviation="7"/>
<feComposite in2="SourceAlpha" operator="in" result="effect1_backgroundBlur_263_3206"/>
<feBlend mode="normal" in="SourceGraphic" in2="effect1_backgroundBlur_263_3206" result="shape"/>
</filter>
<filter id="filter1_b_263_3206" x="-2.953" y="31.3823" width="139.919" height="111.792" filterUnits="userSpaceOnUse" color-interpolation-filters="sRGB">
<feFlood flood-opacity="0" result="BackgroundImageFix"/>
<feGaussianBlur in="BackgroundImage" stdDeviation="2.5"/>
<feComposite in2="SourceAlpha" operator="in" result="effect1_backgroundBlur_263_3206"/>
<feBlend mode="normal" in="SourceGraphic" in2="effect1_backgroundBlur_263_3206" result="shape"/>
</filter>
<linearGradient id="paint0_linear_263_3206" x1="99.8253" y1="24.8733" x2="29.1077" y2="133.116" gradientUnits="userSpaceOnUse">
<stop stop-color="white"/>
<stop offset="1" stop-color="white" stop-opacity="0"/>
</linearGradient>
</defs>
</svg>
