<?xml version='1.0' encoding='UTF-8' standalone='no'?>
<svg width="64" height="16" viewBox="0 0 64 16" fill="none" xmlns="http://www.w3.org/2000/svg">
<g clip-path="url(#clip0_263_3191)">
<path d="M4.1945 14.9593H2.21728V1.93733C2.21728 1.1445 2.36938 0.83643 2.69593 0.638601V0.461914H0V0.638601C0.347429 0.83643 0.499522 1.1445 0.499522 1.93733V14.4157C0.499522 15.1858 0.347429 15.5166 0 15.7144V15.8684H9.06149L9.54013 13.206L9.41041 13.1185C8.38899 14.461 6.60712 14.9608 4.1945 14.9608V14.9593Z" fill="#6C7D99"/>
<path d="M12.8205 14.4161V5.28271H12.6684L10.6256 5.76747V5.92151C11.0386 5.98795 11.1043 6.20692 11.1043 6.97861V14.4176C11.1043 15.1878 10.9522 15.5185 10.6256 15.7163V15.8704H13.32V15.7163C12.9726 15.5185 12.8205 15.1878 12.8205 14.4176V14.4161Z" fill="#6C7D99"/>
<path d="M11.908 3.49908C12.4721 3.49908 12.9294 3.03594 12.9294 2.46463C12.9294 1.89331 12.4721 1.43018 11.908 1.43018C11.3439 1.43018 10.8866 1.89331 10.8866 2.46463C10.8866 3.03594 11.3439 3.49908 11.908 3.49908Z" fill="#6C7D99"/>
<path d="M24.9687 14.4159C24.8822 13.6019 24.6645 11.2899 24.4468 9.15606C24.1859 6.51481 22.6634 5.21156 20.883 5.28254C18.0052 5.39731 16.7676 7.67914 16.9465 9.8024L17.036 5.28254H16.8839L14.8411 5.76729V5.92133C15.2541 5.98777 15.3197 6.20674 15.3197 6.97843V14.4174C15.3197 15.1876 15.1676 15.5183 14.8411 15.7161V15.8702H17.5355V15.7161C17.1881 15.5183 17.036 15.1876 17.036 14.4174V12.6128C17.036 10.7644 17.7577 6.394 20.2091 6.01194C21.906 5.74766 22.5993 7.17626 22.7514 8.82685C22.8603 9.97154 23.1853 13.691 23.2509 14.4174C23.3165 15.1438 23.2286 15.5183 22.8811 15.7161V15.8702H25.5756V15.7161C25.249 15.5183 25.0537 15.2102 24.9672 14.4174L24.9687 14.4159Z" fill="#6C7D99"/>
<path d="M33.9198 11.8411L31.9203 8.60632C33.8975 6.84549 34.9412 5.94394 36.1356 5.45918V5.28249H33.2667V5.45918C34.1361 6.03153 33.6142 5.9832 31.376 8.00831L29.0722 10.0546V0H28.9201L26.8773 0.462105V0.638792C27.2904 0.705238 27.356 0.792827 27.356 1.563V14.3056C27.356 15.0758 27.2039 15.5168 26.8773 15.7146V15.8686H29.5718V15.7146C29.2243 15.5168 29.0722 15.0758 29.0722 14.3056V11.1585L30.8317 9.59547L33.2876 13.6457C33.9392 14.7677 34.1778 15.3189 33.6783 15.7146V15.8686H36.9811V15.7146C36.0029 15.2525 35.4169 14.3056 33.9169 11.8411H33.9198Z" fill="#6C7D99"/>
<path d="M45.1106 11.8411L43.1111 8.60632C45.0883 6.84549 46.132 5.94394 47.3264 5.45918V5.28249H44.4575V5.45918C45.3268 6.03153 44.805 5.9832 42.5668 8.00831L40.263 10.0546V0H40.1109L38.0681 0.462105V0.638792C38.4812 0.705238 38.5468 0.792827 38.5468 1.563V14.3056C38.5468 15.0758 38.3947 15.5168 38.0681 15.7146V15.8686H40.7626V15.7146C40.4151 15.5168 40.263 15.0758 40.263 14.3056V11.1585L42.0225 9.59547L44.4784 13.6457C45.13 14.7677 45.3686 15.3189 44.8691 15.7146V15.8686H48.1719V15.7146C47.1937 15.2525 46.6077 14.3056 45.1077 11.8411H45.1106Z" fill="#6C7D99"/>
<path d="M51.4553 14.4159V0H51.3032L49.2604 0.462105V0.638792C49.6734 0.705238 49.739 0.92421 49.739 1.69589V14.4159C49.739 15.186 49.5869 15.5168 49.2604 15.7146V15.8686H51.9339V15.7146C51.6074 15.5168 51.4553 15.186 51.4553 14.4159Z" fill="#6C7D99"/>
<path d="M59.9769 15.2134C57.7597 15.3009 56.2805 14.5912 55.4753 12.2807C55.1055 11.2236 55.0399 10.2284 55.3232 9.06102H63.8628C63.5586 6.39863 60.8403 5.12256 58.884 5.12256C56.4892 5.12256 53.3654 7.06461 53.4742 10.8717C53.5607 14.5036 56.452 16.0001 59.4506 16.0001C62.4492 16.0001 63.7301 14.1774 63.997 12.6612H63.496C63.1605 14.2529 61.7514 15.1288 59.974 15.2134H59.9769ZM58.8333 5.85347C60.2737 5.85347 62.0168 6.66895 62.3001 8.5823H55.3679C55.7586 7.08575 57.3302 5.85347 58.8348 5.85347H58.8333Z" fill="#6C7D99"/>
</g>
<defs>
<clipPath id="clip0_263_3191">
<rect width="64" height="16" fill="white"/>
</clipPath>
</defs>
</svg>
